<svg xmlns="http://www.w3.org/2000/svg" viewBox="0 0 1024 1024" shape-rendering="geometricPrecision">
  <defs>
    <linearGradient id="mint" x1="0.08" y1="0" x2="0.92" y2="1">
      <stop offset="0%"  stop-color="#d0ecde"/>
      <stop offset="48%" stop-color="#a8d5ba"/>
      <stop offset="100%" stop-color="#76b49e"/>
    </linearGradient>
    <radialGradient id="glow" cx="30%" cy="20%" r="66%">
      <stop offset="0%" stop-color="#ffffff" stop-opacity="0.17"/>
      <stop offset="100%" stop-color="#ffffff" stop-opacity="0"/>
    </radialGradient>
    <radialGradient id="vignette" cx="72%" cy="78%" r="55%">
      <stop offset="0%" stop-color="#000000" stop-opacity="0.06"/>
      <stop offset="100%" stop-color="#000000" stop-opacity="0"/>
    </radialGradient>
  </defs>

  <rect width="1024" height="1024" rx="228" fill="url(#mint)"/>
  <rect width="1024" height="1024" rx="228" fill="url(#glow)"/>
  <rect width="1024" height="1024" rx="228" fill="url(#vignette)"/>

  <g fill="none" stroke="#ffffff" stroke-width="30" stroke-linecap="round" stroke-linejoin="round">
    <path d="M 587 282 A 258 258 0 1 1 717 419"/>
    <path d="M 230 512 C 272 512 304 450 350 420 C 374 404 390 445 418 448 C 442 450 456 386 492 374 C 526 363 540 422 570 432 C 596 441 618 416 655 422 L 674 512"/>
    <path d="M 232 558 Q 320 542 408 558 Q 496 574 584 558 Q 648 546 682 552"/>
    <path d="M 234 598 Q 322 582 410 598 Q 498 614 586 598 Q 650 586 684 592"/>
    <path d="M 236 636 Q 324 622 412 636 Q 500 650 588 636 Q 652 624 686 629"/>
    <path d="M 587 282 C 618 258 645 237 668 218 C 686 203 704 190 722 176"/>
  </g>

  <path d="M 632 250 C 648 226 678 220 702 232 C 714 240 712 256 698 264 C 678 272 650 270 632 250 Z" fill="white"/>
  <path d="M 674 220 C 696 190 728 184 756 200 C 772 210 770 230 754 240 C 732 252 698 250 674 220 Z" fill="white"/>
</svg>
